<mxfile host="app.diagrams.net" modified="2023-05-09T08:47:46.841Z" agent="Mozilla/5.0 (Macintosh; Intel Mac OS X 10_15_7) AppleWebKit/537.36 (KHTML, like Gecko) Chrome/108.0.0.0 Safari/537.36" etag="qcXaCaHkFYZ0Clq46duu" version="21.2.9" type="github">
  <diagram name="第 1 页" id="lI0jquQEL-0bdfS0nJyg">
    <mxGraphModel dx="954" dy="521" grid="1" gridSize="10" guides="1" tooltips="1" connect="1" arrows="1" fold="1" page="1" pageScale="1" pageWidth="827" pageHeight="1169" math="0" shadow="0">
      <root>
        <mxCell id="0" />
        <mxCell id="1" parent="0" />
        <mxCell id="1rHj9ReORH10tZAbjrSj-1" value="refresh流程图" style="text;html=1;strokeColor=none;fillColor=none;align=center;verticalAlign=middle;whiteSpace=wrap;rounded=0;fontSize=20;" vertex="1" parent="1">
          <mxGeometry x="274" y="30" width="140" height="30" as="geometry" />
        </mxCell>
        <mxCell id="1rHj9ReORH10tZAbjrSj-6" style="edgeStyle=orthogonalEdgeStyle;rounded=0;orthogonalLoop=1;jettySize=auto;html=1;entryX=0.5;entryY=0;entryDx=0;entryDy=0;" edge="1" parent="1" source="1rHj9ReORH10tZAbjrSj-3" target="1rHj9ReORH10tZAbjrSj-4">
          <mxGeometry relative="1" as="geometry" />
        </mxCell>
        <mxCell id="1rHj9ReORH10tZAbjrSj-3" value="" style="ellipse;whiteSpace=wrap;html=1;aspect=fixed;fillColor=#ffe6cc;strokeColor=#d79b00;" vertex="1" parent="1">
          <mxGeometry x="320" y="80" width="40" height="40" as="geometry" />
        </mxCell>
        <mxCell id="1rHj9ReORH10tZAbjrSj-9" style="edgeStyle=orthogonalEdgeStyle;rounded=0;orthogonalLoop=1;jettySize=auto;html=1;entryX=0.5;entryY=0;entryDx=0;entryDy=0;" edge="1" parent="1" source="1rHj9ReORH10tZAbjrSj-4" target="1rHj9ReORH10tZAbjrSj-8">
          <mxGeometry relative="1" as="geometry" />
        </mxCell>
        <mxCell id="1rHj9ReORH10tZAbjrSj-4" value="&lt;span style=&quot;font-size: 14px;&quot;&gt;执行bean工厂后置处理器方法&lt;br&gt;AbstracApplicationContext.invlkeBeanFactoryPostProcessor&lt;br&gt;&lt;/span&gt;" style="rounded=0;whiteSpace=wrap;html=1;" vertex="1" parent="1">
          <mxGeometry x="135" y="170" width="410" height="70" as="geometry" />
        </mxCell>
        <mxCell id="1rHj9ReORH10tZAbjrSj-7" value="-- 基于SpringBoot-2.6.14的核心流程" style="text;html=1;strokeColor=none;fillColor=none;align=center;verticalAlign=middle;whiteSpace=wrap;rounded=0;" vertex="1" parent="1">
          <mxGeometry x="414" y="50" width="200" height="30" as="geometry" />
        </mxCell>
        <mxCell id="1rHj9ReORH10tZAbjrSj-12" style="edgeStyle=orthogonalEdgeStyle;rounded=0;orthogonalLoop=1;jettySize=auto;html=1;entryX=0.5;entryY=0;entryDx=0;entryDy=0;" edge="1" parent="1" source="1rHj9ReORH10tZAbjrSj-8" target="1rHj9ReORH10tZAbjrSj-11">
          <mxGeometry relative="1" as="geometry" />
        </mxCell>
        <mxCell id="1rHj9ReORH10tZAbjrSj-8" value="&lt;font style=&quot;font-size: 14px;&quot;&gt;&lt;font style=&quot;font-size: 14px;&quot;&gt;获取实现BeanDefinitionRegistryPostProcessor和PriorityOrdered的bean，这里主要是指&lt;/font&gt;ConfigurationClassPostProcessor&lt;/font&gt;" style="rounded=0;whiteSpace=wrap;html=1;" vertex="1" parent="1">
          <mxGeometry x="135" y="290" width="410" height="70" as="geometry" />
        </mxCell>
        <mxCell id="1rHj9ReORH10tZAbjrSj-15" style="edgeStyle=orthogonalEdgeStyle;rounded=0;orthogonalLoop=1;jettySize=auto;html=1;entryX=0.5;entryY=0;entryDx=0;entryDy=0;" edge="1" parent="1" source="1rHj9ReORH10tZAbjrSj-11" target="1rHj9ReORH10tZAbjrSj-13">
          <mxGeometry relative="1" as="geometry" />
        </mxCell>
        <mxCell id="1rHj9ReORH10tZAbjrSj-11" value="&lt;font style=&quot;font-size: 14px;&quot;&gt;执行上一步这些bean的bean定义后置处理器方法，主要是ConfigurationClassPostProcessor.postProcessBeanDefinitionRegistry&lt;br&gt;(这个方法非常重要，会注册项目中所有的bean定义)&lt;/font&gt;" style="rounded=0;whiteSpace=wrap;html=1;" vertex="1" parent="1">
          <mxGeometry x="120" y="410" width="440" height="70" as="geometry" />
        </mxCell>
        <mxCell id="1rHj9ReORH10tZAbjrSj-16" style="edgeStyle=orthogonalEdgeStyle;rounded=0;orthogonalLoop=1;jettySize=auto;html=1;entryX=0.5;entryY=0;entryDx=0;entryDy=0;" edge="1" parent="1" source="1rHj9ReORH10tZAbjrSj-13">
          <mxGeometry relative="1" as="geometry">
            <mxPoint x="340" y="650" as="targetPoint" />
          </mxGeometry>
        </mxCell>
        <mxCell id="1rHj9ReORH10tZAbjrSj-13" value="&lt;font style=&quot;font-size: 14px;&quot;&gt;&lt;font style=&quot;font-size: 14px;&quot;&gt;&lt;font style=&quot;font-size: 14px;&quot;&gt;获取实现BeanDefinitionRegistryPostProcessor还没有被处理到be&lt;/font&gt;&lt;font style=&quot;font-size: 14px;&quot;&gt;an，并执行这些bean的bean定义后置处理器方法&lt;/font&gt;&lt;/font&gt;postProcessBeanDefinitionRegistry&lt;/font&gt;" style="rounded=0;whiteSpace=wrap;html=1;" vertex="1" parent="1">
          <mxGeometry x="135" y="530" width="410" height="70" as="geometry" />
        </mxCell>
        <mxCell id="1rHj9ReORH10tZAbjrSj-24" style="edgeStyle=orthogonalEdgeStyle;rounded=0;orthogonalLoop=1;jettySize=auto;html=1;entryX=0.5;entryY=0;entryDx=0;entryDy=0;" edge="1" parent="1" source="1rHj9ReORH10tZAbjrSj-22" target="1rHj9ReORH10tZAbjrSj-23">
          <mxGeometry relative="1" as="geometry" />
        </mxCell>
        <mxCell id="1rHj9ReORH10tZAbjrSj-22" value="&lt;font style=&quot;&quot;&gt;&lt;font style=&quot;&quot;&gt;&lt;font style=&quot;&quot;&gt;&lt;font style=&quot;background-color: initial;&quot;&gt;&lt;font style=&quot;font-size: 14px;&quot;&gt;执行以上3步这些bean的bean工厂后置处理器方法postProcessBeanFactory&lt;/font&gt;&lt;br&gt;&lt;/font&gt;&lt;/font&gt;&lt;/font&gt;&lt;/font&gt;" style="rounded=0;whiteSpace=wrap;html=1;" vertex="1" parent="1">
          <mxGeometry x="135" y="650" width="410" height="70" as="geometry" />
        </mxCell>
        <mxCell id="1rHj9ReORH10tZAbjrSj-26" style="edgeStyle=orthogonalEdgeStyle;rounded=0;orthogonalLoop=1;jettySize=auto;html=1;entryX=0.5;entryY=0;entryDx=0;entryDy=0;" edge="1" parent="1" source="1rHj9ReORH10tZAbjrSj-23" target="1rHj9ReORH10tZAbjrSj-25">
          <mxGeometry relative="1" as="geometry" />
        </mxCell>
        <mxCell id="1rHj9ReORH10tZAbjrSj-23" value="&lt;font style=&quot;font-size: 14px;&quot;&gt;&lt;font style=&quot;font-size: 14px;&quot;&gt;&lt;font style=&quot;font-size: 14px;&quot;&gt;获取实现BeanFactoryPostProcessor的&lt;font style=&quot;background-color: initial; font-size: 14px;&quot;&gt;bean，并执行这些bean的bean工厂后置处理器方法postProcessBeanFactory&lt;br&gt;&lt;/font&gt;&lt;/font&gt;&lt;/font&gt;&lt;/font&gt;" style="rounded=0;whiteSpace=wrap;html=1;" vertex="1" parent="1">
          <mxGeometry x="135" y="770" width="410" height="70" as="geometry" />
        </mxCell>
        <mxCell id="1rHj9ReORH10tZAbjrSj-28" style="edgeStyle=orthogonalEdgeStyle;rounded=0;orthogonalLoop=1;jettySize=auto;html=1;entryX=0.5;entryY=0;entryDx=0;entryDy=0;" edge="1" parent="1" source="1rHj9ReORH10tZAbjrSj-25" target="1rHj9ReORH10tZAbjrSj-27">
          <mxGeometry relative="1" as="geometry" />
        </mxCell>
        <mxCell id="1rHj9ReORH10tZAbjrSj-25" value="&lt;font style=&quot;font-size: 14px;&quot;&gt;&lt;font style=&quot;font-size: 14px;&quot;&gt;&lt;font style=&quot;font-size: 14px;&quot;&gt;&lt;font style=&quot;font-size: 14px;&quot;&gt;&lt;font style=&quot;background-color: initial; font-size: 14px;&quot;&gt;注册实现&lt;/font&gt;&lt;/font&gt;&lt;/font&gt;&lt;/font&gt;BeanPostProcessor的bean&lt;/font&gt;" style="rounded=0;whiteSpace=wrap;html=1;" vertex="1" parent="1">
          <mxGeometry x="135" y="890" width="410" height="70" as="geometry" />
        </mxCell>
        <mxCell id="1rHj9ReORH10tZAbjrSj-30" style="edgeStyle=orthogonalEdgeStyle;rounded=0;orthogonalLoop=1;jettySize=auto;html=1;entryX=0.5;entryY=0;entryDx=0;entryDy=0;" edge="1" parent="1" source="1rHj9ReORH10tZAbjrSj-27" target="1rHj9ReORH10tZAbjrSj-29">
          <mxGeometry relative="1" as="geometry" />
        </mxCell>
        <mxCell id="1rHj9ReORH10tZAbjrSj-27" value="&lt;span style=&quot;font-size: 14px;&quot;&gt;实例化所有的非懒加载bean&lt;/span&gt;" style="rounded=0;whiteSpace=wrap;html=1;" vertex="1" parent="1">
          <mxGeometry x="135" y="1010" width="410" height="70" as="geometry" />
        </mxCell>
        <mxCell id="1rHj9ReORH10tZAbjrSj-29" value="" style="ellipse;whiteSpace=wrap;html=1;aspect=fixed;fillColor=#ffe6cc;strokeColor=#d79b00;" vertex="1" parent="1">
          <mxGeometry x="320" y="1129" width="40" height="40" as="geometry" />
        </mxCell>
      </root>
    </mxGraphModel>
  </diagram>
</mxfile>
